<?xml version="1.0" encoding="UTF-8" standalone="no"?>
<svg
   viewBox="0 0 578.10669 816"
   height="816"
   width="578.10669"
   xml:space="preserve"
   id="svg2"
   version="1.1"
   sodipodi:docname="html5-seeklogo.com_1.svg"
   inkscape:version="1.3.2 (091e20ef0f, 2023-11-25)"
   xmlns:inkscape="http://www.inkscape.org/namespaces/inkscape"
   xmlns:sodipodi="http://sodipodi.sourceforge.net/DTD/sodipodi-0.dtd"
   xmlns="http://www.w3.org/2000/svg"
   xmlns:svg="http://www.w3.org/2000/svg"
   xmlns:rdf="http://www.w3.org/1999/02/22-rdf-syntax-ns#"
   xmlns:cc="http://creativecommons.org/ns#"
   xmlns:dc="http://purl.org/dc/elements/1.1/"><sodipodi:namedview
     id="namedview1"
     pagecolor="#ffffff"
     bordercolor="#000000"
     borderopacity="0.25"
     inkscape:showpageshadow="2"
     inkscape:pageopacity="0.0"
     inkscape:pagecheckerboard="0"
     inkscape:deskcolor="#d1d1d1"
     inkscape:zoom="1.2671569"
     inkscape:cx="288.83558"
     inkscape:cy="123.89942"
     inkscape:window-width="1920"
     inkscape:window-height="1080"
     inkscape:window-x="0"
     inkscape:window-y="0"
     inkscape:window-maximized="1"
     inkscape:current-layer="svg2" /><metadata
     id="metadata8"><rdf:RDF><cc:Work
         rdf:about=""><dc:format>image/svg+xml</dc:format><dc:type
           rdf:resource="http://purl.org/dc/dcmitype/StillImage" /></cc:Work></rdf:RDF></metadata><defs
     id="defs6" /><g
     transform="matrix(1.3333333,0,0,-1.3333333,0,816)"
     id="g10"><g
       transform="scale(0.1)"
       id="g12"><path
         id="path14"
         style="fill:#e53d20;fill-opacity:1;fill-rule:nonzero;stroke:none"
         d="M 394.578,491.551 0,4917.28 H 4335.8 L 3940.79,492.25 2165.24,0 394.578,491.551" /><path
         id="path16"
         style="fill:#f15123;fill-opacity:1;fill-rule:nonzero;stroke:none"
         d="M 2167.9,376.25 3602.63,774.012 3940.19,4555.41 H 2167.9 V 376.25" /><path
         id="path18"
         style="fill:#ededed;fill-opacity:1;fill-rule:nonzero;stroke:none"
         d="m 2167.9,2913.96 h -718.26 l -49.61,555.84 h 767.87 v 542.8 h -1.88 -1359.204 l 12.997,-145.62 133.41,-1495.8 H 2167.9 v 542.78" /><path
         id="path20"
         style="fill:#ededed;fill-opacity:1;fill-rule:nonzero;stroke:none"
         d="m 2167.9,1504.27 -2.38,-0.64 -604.51,163.24 -38.66,432.9 H 1228.61 977.469 l 76.051,-852.27 1111.88,-308.66 2.5,0.691 v 564.739" /><path
         id="path30"
         style="fill:#ffffff;fill-opacity:1;fill-rule:nonzero;stroke:none"
         d="m 2166.02,2913.96 v -542.78 h 668.39 l -63,-703.97 -605.39,-163.4 V 939.102 l 1112.76,308.398 8.16,91.7 127.56,1429.01 13.24,145.75 H 3281.47 2166.02" /><path
         id="path32"
         style="fill:#ffffff;fill-opacity:1;fill-rule:nonzero;stroke:none"
         d="m 2166.02,4012.6 v -542.8 h 1309.37 v 0 h 1.74 l 10.89,122.01 24.73,275.17 12.98,145.62 H 2166.02" /></g></g></svg>
