<?xml version="1.0" encoding="UTF-8" standalone="no"?>
<svg
   height="308"
   viewBox=".16 .18 799.8 98.72"
   width="2500"
   version="1.1"
   id="svg2"
   sodipodi:docname="tailwind-css-wordmark-seeklogo.com.svg"
   inkscape:version="1.3.2 (091e20ef0f, 2023-11-25)"
   xmlns:inkscape="http://www.inkscape.org/namespaces/inkscape"
   xmlns:sodipodi="http://sodipodi.sourceforge.net/DTD/sodipodi-0.dtd"
   xmlns="http://www.w3.org/2000/svg"
   xmlns:svg="http://www.w3.org/2000/svg">
  <defs
     id="defs2" />
  <sodipodi:namedview
     id="namedview2"
     pagecolor="#ffffff"
     bordercolor="#000000"
     borderopacity="0.25"
     inkscape:showpageshadow="2"
     inkscape:pageopacity="0.0"
     inkscape:pagecheckerboard="0"
     inkscape:deskcolor="#d1d1d1"
     inkscape:zoom="0.3788"
     inkscape:cx="1251.32"
     inkscape:cy="153.1151"
     inkscape:window-width="1920"
     inkscape:window-height="1080"
     inkscape:window-x="0"
     inkscape:window-y="0"
     inkscape:window-maximized="1"
     inkscape:current-layer="svg2" />
  <path
     fill="#808080"
     d="m248.04 41.78h-14.42v27.79c0 7.41 4.89 7.29 14.42 6.83v11.23c-19.3 2.32-26.98-3.01-26.98-18.06v-27.79h-10.7v-12.05h10.7v-15.55l12.56-3.7v19.25h14.42zm54.98-12.05h12.56v57.9h-12.56v-8.34c-4.42 6.14-11.29 9.85-20.36 9.85-15.81 0-28.95-13.32-28.95-30.46 0-17.25 13.14-30.45 28.95-30.45 9.07 0 15.94 3.7 20.36 9.72zm-18.38 47.48c10.47 0 18.38-7.76 18.38-18.53s-7.91-18.53-18.38-18.53-18.37 7.76-18.37 18.53 7.9 18.53 18.37 18.53zm51.87-56.16c-4.42 0-8.03-3.71-8.03-7.99.01-1.05.22-2.09.62-3.06a7.997 7.997 0 0 1 4.34-4.32c.97-.4 2.02-.61 3.07-.61s2.09.21 3.07.61c.97.4 1.85.99 2.6 1.73.74.75 1.33 1.63 1.74 2.59.4.97.61 2.01.61 3.06 0 4.28-3.6 7.99-8.02 7.99zm-6.28 66.58v-57.9h12.56v57.9zm27.1 0v-84.53h12.56v84.53zm94.08-57.9h13.26l-18.26 57.9h-12.33l-12.09-39.02-12.21 39.02h-12.33l-18.26-57.9h13.26l11.28 39.95 12.21-39.95h11.98l12.09 39.95zm28.84-8.68c-4.42 0-8.02-3.71-8.02-7.99 0-1.05.21-2.09.61-3.06.41-.96 1-1.84 1.74-2.59.75-.74 1.63-1.33 2.6-1.73.98-.4 2.02-.61 3.07-.61a8.044 8.044 0 0 1 5.67 2.34c.75.75 1.34 1.63 1.74 2.59.41.97.62 2.01.62 3.06 0 4.28-3.61 7.99-8.03 7.99zm-6.28 66.58v-57.9h12.56v57.9zm80.02-35.55v35.55h-12.56v-34.27c0-8.81-5.12-13.44-13.03-13.44-8.26 0-14.77 4.87-14.77 16.68v31.03h-12.56v-57.9h12.56v7.41c3.84-6.02 10.12-8.91 18.03-8.91 13.02 0 22.33 8.8 22.33 23.85zm59.54-45.51h12.56v81.06h-12.56v-8.34c-4.42 6.14-11.28 9.85-20.35 9.85-15.82 0-28.96-13.32-28.96-30.46 0-17.25 13.14-30.45 28.96-30.45 9.07 0 15.93 3.7 20.35 9.72zm-18.37 70.64c10.46 0 18.37-7.76 18.37-18.53s-7.91-18.53-18.37-18.53c-10.47 0-18.38 7.76-18.38 18.53s7.91 18.53 18.38 18.53zm42.33-18.53c0-17.25 13.14-30.45 30.7-30.45 11.4 0 21.28 5.9 25.93 14.94l-10.81 6.25c-2.56-5.44-8.26-8.92-15.24-8.92-10.23 0-18.02 7.76-18.02 18.18s7.79 18.18 18.02 18.18c6.98 0 12.68-3.59 15.47-8.91l10.82 6.13c-4.89 9.15-14.77 15.06-26.17 15.06-17.56 0-30.7-13.32-30.7-30.46zm108.85 12.62c0 11.58-10.12 17.84-22.68 17.84-11.63 0-20-5.22-23.72-13.55l10.81-6.26c1.87 5.22 6.52 8.34 12.91 8.34 5.59 0 9.89-1.85 9.89-6.48 0-10.31-31.28-4.52-31.28-25.25 0-10.88 9.42-17.71 21.28-17.71 9.53 0 17.44 4.4 21.51 12.04l-10.58 5.91c-2.09-4.52-6.16-6.6-10.93-6.6-4.54 0-8.49 1.96-8.49 6.13 0 10.54 31.28 4.17 31.28 25.59zm53.62 0c0 11.58-10.12 17.84-22.68 17.84-11.63 0-20.01-5.22-23.73-13.55l10.82-6.26c1.86 5.22 6.51 8.34 12.91 8.34 5.58 0 9.88-1.85 9.88-6.48 0-10.31-31.28-4.52-31.28-25.25 0-10.88 9.42-17.71 21.28-17.71 9.54 0 17.45 4.4 21.52 12.04l-10.59 5.91c-2.09-4.52-6.16-6.6-10.93-6.6-4.53 0-8.49 1.96-8.49 6.13 0 10.54 31.29 4.17 31.29 25.59z"
     id="path1" />
  <path
     d="m82.79.18c-22.03 0-35.81 10.97-41.32 32.91 8.27-10.97 17.91-15.09 28.93-12.35 6.28 1.57 10.77 6.11 15.75 11.14 8.1 8.18 17.48 17.66 37.96 17.66 22.03 0 35.8-10.97 41.31-32.91-8.26 10.97-17.9 15.08-28.92 12.34-6.28-1.56-10.78-6.11-15.75-11.13-8.1-8.19-17.48-17.66-37.96-17.66zm-41.32 49.36c-22.03 0-35.8 10.97-41.31 32.91 8.26-10.97 17.9-15.08 28.92-12.34 6.29 1.56 10.78 6.11 15.75 11.13 8.1 8.19 17.48 17.66 37.96 17.66 22.04 0 35.81-10.97 41.32-32.91-8.27 10.97-17.91 15.09-28.92 12.35-6.29-1.57-10.78-6.11-15.76-11.14-8.1-8.18-17.48-17.66-37.96-17.66z"
     fill="#06b6d4"
     id="path2" />
  <path
     style="fill:#f9f9f9;stroke-width:2.63992"
     d="m 727.62092,270.63801 c -11.66884,-2.82326 -21.50754,-10.34594 -28.04331,-21.44194 -4.74756,-8.06011 -5.36529,-14.61908 -6.12761,-65.06196 L 692.60221,128.0359 H 675.63057 658.65892 V 110.87645 93.717001 h 17.15945 17.15945 V 69.168532 44.620065 l 18.47941,-5.441989 18.47941,-5.44199 v 29.990458 29.990457 h 22.43928 22.43929 v 17.159449 17.15945 h -22.43929 -22.43928 v 50.1584 c 0,60.60601 0.0514,60.71805 27.84508,60.71805 h 17.28543 l -0.78595,16.49948 -0.78595,16.49947 -18.47941,0.4419 c -10.16368,0.24305 -22.49139,-0.52879 -27.39492,-1.71519 z"
     id="path3"
     transform="matrix(0.32051948,0,0,0.32051948,-0.58935065,0.18)" />
  <path
     style="fill:#f9f9f9;stroke-width:2.63992"
     d="m 858.88116,272.35042 c -28.67555,-10.71391 -47.4214,-29.13425 -57.79825,-56.79461 -7.92044,-21.11259 -6.55615,-53.8385 3.09829,-74.32033 8.51839,-18.07172 25.53968,-35.01372 44.53389,-44.32645 12.231,-5.996774 17.8878,-7.105448 35.65661,-6.988328 23.83849,0.157127 39.86779,6.139233 52.90039,19.742338 4.11703,4.29726 8.45122,7.8132 9.63153,7.8132 1.18031,0 2.14601,-5.34583 2.14601,-11.87962 V 93.717001 h 18.47941 18.47941 v 88.437169 88.43717 h -18.47941 -18.47941 v -11.87962 c 0,-6.53379 -0.9657,-11.87962 -2.14601,-11.87962 -1.18031,0 -5.63516,3.67268 -9.89968,8.16152 -12.63135,13.29575 -26.4897,19.00098 -48.67237,20.03751 -12.45998,0.58221 -23.37689,-0.41149 -29.45041,-2.68071 z m 57.80277,-37.28989 c 46.71907,-21.75106 40.23759,-94.2408 -9.72932,-108.81407 -44.07343,-12.85438 -83.94146,24.73042 -73.95025,69.71515 8.37541,37.70968 47.4492,55.96674 83.67957,39.09892 z"
     id="path4"
     transform="matrix(0.32051948,0,0,0.32051948,-0.58935065,0.18)" />
  <path
     style="fill:#f9f9f9;stroke-width:2.63992"
     d="M 1033.5269,182.15417 V 93.717001 h 18.4794 18.4794 v 88.437169 88.43717 h -18.4794 -18.4794 z"
     id="path5"
     transform="matrix(0.32051948,0,0,0.32051948,-0.58935065,0.18)" />
  <path
     style="fill:#f9f9f9;stroke-width:2.63992"
     d="m 1040.8531,60.562825 c -14.6729,-7.962669 -16.8347,-23.741359 -4.8893,-35.686698 5.2666,-5.266623 10.3601,-7.716676 16.0425,-7.716676 9.704,0 23.7593,12.299997 23.7593,20.792038 0,9.484963 -5.789,18.446729 -14.6243,22.639345 -10.3798,4.925531 -11.1623,4.924448 -20.2882,-0.02801 z"
     id="path6"
     transform="matrix(0.32051948,0,0,0.32051948,-0.58935065,0.18)" />
  <path
     style="fill:#f9f9f9;stroke-width:2.63992"
     d="m 1156.1873,139.91552 c 5e-4,-72.597674 0.3398,-101.91699 0.754,-65.154034 0.4142,36.762954 0.4138,96.161054 -9e-4,131.995774 -0.4147,35.83472 -0.7536,5.75594 -0.7531,-66.84174 z"
     id="path7"
     transform="matrix(0.32051948,0,0,0.32051948,-0.58935065,0.18)" />
  <path
     style="fill:#f9f9f9;stroke-width:2.63992"
     d="M 1118.0042,139.91552 V 9.2397043 h 18.4794 18.4794 V 139.91552 270.59134 h -18.4794 -18.4794 z"
     id="path8"
     transform="matrix(0.32051948,0,0,0.32051948,-0.58935065,0.18)" />
  <path
     style="fill:#f9f9f9;stroke-width:2.63992"
     d="m 1239.811,262.1224 c -1.5136,-4.77978 -13.541,-43.14141 -26.7278,-85.24806 -13.1867,-42.10665 -24.4932,-78.042503 -25.1256,-79.857445 -0.8514,-2.443435 3.8486,-3.299894 18.109,-3.299894 h 19.259 l 16.7232,60.058079 c 9.1977,33.03194 17.6014,61.06863 18.6747,62.30376 1.0734,1.23512 2.5979,0.0472 3.3879,-2.63992 2.9799,-10.13588 31.1569,-102.92852 33.7489,-111.14219 2.7016,-8.560957 2.7464,-8.579729 20.4642,-8.579729 h 17.7566 l 17.9807,60.058079 c 9.8894,33.03194 18.85,61.00439 19.9124,62.16099 1.5552,1.69305 15.2388,-42.83254 34.9236,-113.63934 l 2.3852,-8.579729 h 18.3553 c 10.0955,0 18.4,0.890972 18.4546,1.979937 0.055,1.088965 -12.1202,40.885692 -27.0551,88.437172 l -27.1544,86.45723 h -18.6118 -18.6118 l -18.1797,-59.54428 c -9.9988,-32.74935 -18.877,-59.97528 -19.7293,-60.50205 -0.8524,-0.52678 -9.9027,25.97116 -20.1118,58.8843 l -18.5621,59.84207 -18.757,0.77077 -18.7571,0.77076 z"
     id="path9"
     transform="matrix(0.32051948,0,0,0.32051948,-0.58935065,0.18)" />
  <path
     style="fill:#f9f9f9;stroke-width:2.63992"
     d="M 1482.3126,182.15417 V 93.717001 h 18.4794 18.4794 v 88.437169 88.43717 h -18.4794 -18.4794 z"
     id="path10"
     transform="matrix(0.32051948,0,0,0.32051948,-0.58935065,0.18)" />
  <path
     style="fill:#f9f9f9;stroke-width:2.63992"
     d="m 1489.6387,60.624921 c -14.3741,-7.924615 -17.0334,-25.118488 -5.6462,-36.505693 13.3102,-13.310149 35.8715,-5.79221 39.5044,13.163763 1.2771,6.663493 0.1378,9.808514 -5.9426,16.405246 -9.1519,9.92893 -18.3447,12.213233 -27.9156,6.936684 z"
     id="path11"
     transform="matrix(0.32051948,0,0,0.32051948,-0.58935065,0.18)" />
  <path
     style="fill:#f9f9f9;stroke-width:2.63992"
     d="M 1566.7899,182.15417 V 93.717001 h 18.4794 18.4794 v 11.077529 11.07752 l 8.5797,-8.14206 c 14.3785,-13.645013 24.939,-17.66237 46.8585,-17.825505 16.038,-0.119363 22.3033,1.106443 32.9795,6.452432 14.7955,7.408623 28.702,23.896843 32.898,39.005423 1.5263,5.49589 2.7374,37.48769 2.7456,72.53101 l 0.015,62.69799 h -16.9087 -16.9087 l -0.9107,-60.05808 c -0.8553,-56.40338 -1.2631,-60.62034 -6.7006,-69.29778 -7.7644,-12.39061 -14.7037,-16.1856 -32.256,-17.64011 -20.4057,-1.69097 -36.1735,6.40345 -44.4515,22.81933 -5.6049,11.1149 -5.9398,14.9476 -5.9398,67.97783 v 56.19881 h -18.4794 -18.4794 z"
     id="path12"
     transform="matrix(0.32051948,0,0,0.32051948,-0.58935065,0.18)" />
  <path
     style="fill:#f9f9f9;stroke-width:2.63992"
     d="m 1827.7302,272.35042 c -26.0775,-9.7432 -41.8583,-23.79964 -55.3225,-49.27756 -5.4543,-10.32115 -6.2797,-15.51605 -6.2911,-39.59873 -0.012,-24.4183 0.8068,-29.44811 6.8722,-42.23865 8.5809,-18.09494 25.6079,-35.02685 44.5753,-44.326449 12.231,-5.996774 17.8878,-7.105449 35.6566,-6.988329 23.8385,0.157128 39.8678,6.139232 52.9004,19.742338 4.117,4.29726 8.4512,7.8132 9.6315,7.8132 1.1803,0 2.146,-21.383315 2.146,-47.518479 V 22.439282 h 18.4794 18.4794 V 146.51531 270.59134 h -18.4794 -18.4794 v -11.87962 c 0,-6.53379 -0.9657,-11.87962 -2.146,-11.87962 -1.1803,0 -5.6351,3.67268 -9.8997,8.16152 -12.6313,13.29575 -26.4897,19.00098 -48.6723,20.03751 -12.46,0.58221 -23.3769,-0.41149 -29.4504,-2.68071 z m 58.2751,-37.78554 c 47.7198,-23.77982 38.5207,-97.57775 -13.6179,-109.24585 -43.6009,-9.75746 -80.2667,26.83036 -70.5814,70.4313 8.5125,38.32114 48.3431,56.68243 84.1993,38.81455 z"
     id="path13"
     transform="matrix(0.32051948,0,0,0.32051948,-0.58935065,0.18)" />
  <path
     style="fill:#f9f9f9;stroke-width:2.63992"
     d="m 2058.5693,272.19524 c -37.5619,-12.25874 -62.2441,-42.81927 -65.8604,-81.54578 -6.7751,-72.55272 69.4159,-123.984217 135.6122,-91.54286 15.3711,7.53307 35.0897,25.96945 35.0897,32.80809 0,1.61063 -6.5074,6.66608 -14.4609,11.23433 l -14.4609,8.30591 -5.3569,-7.52306 c -17.3144,-24.31587 -62.3866,-24.82375 -85.0375,-0.95822 -22.7936,24.01603 -18.8453,69.02432 7.5796,86.40086 24.8888,16.36652 54.7325,13.69925 76.4439,-6.83216 l 8.2659,-7.8167 10.2135,5.28691 c 21.4481,11.10238 21.3879,10.8971 7.6701,26.15451 -17.1622,19.08853 -36.1869,27.72805 -63.4545,28.81608 -13.0275,0.51982 -25.3817,-0.54837 -32.2438,-2.78791 z"
     id="path14"
     transform="matrix(0.32051948,0,0,0.32051948,-0.58935065,0.18)" />
  <path
     style="fill:#f9f9f9;stroke-width:2.63992"
     d="m 2228.0887,271.3463 c -8.875,-3.0317 -17.8613,-9.14803 -27.4281,-18.66824 -15.9724,-15.89469 -16.0162,-15.66319 5.245,-27.74059 l 12.1358,-6.89374 5.7305,7.75081 c 8.0083,10.83189 20.3908,16.51199 35.9958,16.51199 25.1284,0 39.0148,-14.47947 28.2278,-29.43355 -4.7913,-6.64228 -11.5705,-9.70226 -42.2123,-19.0538 -38.9747,-11.89461 -52.253,-26.59642 -50.1597,-55.5368 1.3677,-18.90767 10.737,-31.98185 30.0363,-41.913638 25.3727,-13.057264 65.6157,-7.161231 86.4734,12.669308 13.9581,13.27067 13.7371,14.86296 -3.3242,23.95653 -12.7546,6.79818 -15.7411,7.55396 -16.9899,4.29968 -5.2502,-13.6818 -39.4777,-19.55767 -52.8147,-9.06675 -8.5433,6.72017 -9.2798,18.55695 -1.5997,25.71199 2.9458,2.74447 16.3104,8.31014 29.699,12.36816 41.6225,12.61553 54.4367,21.9634 60.3119,43.99694 6.197,23.24092 -4.9585,45.1453 -28.9763,56.8961 -18.5638,9.08243 -50.4057,10.95879 -70.3506,4.1456 z"
     id="path15"
     transform="matrix(0.32051948,0,0,0.32051948,-0.58935065,0.18)" />
  <path
     style="fill:#f9f9f9;stroke-width:2.63992"
     d="m 2399.219,272.07103 c -6.0631,-1.89582 -15.2952,-6.08682 -20.5158,-9.31335 -9.3577,-5.78338 -22.628,-20.75491 -22.5265,-25.41447 0.049,-2.24395 29.1812,-20.58475 30.1406,-18.97555 12.2706,20.58145 21.5721,24.8711 51.1047,23.56837 10.6088,-0.46797 21.6593,-10.65165 21.6593,-19.96029 0,-10.55999 -9.5737,-16.7811 -40.8496,-26.54454 -44.0905,-13.76385 -59.3818,-29.70416 -56.1342,-58.51695 1.8384,-16.30978 11.8113,-29.96931 28.6306,-39.21424 12.5054,-6.873775 16.8009,-7.812127 35.3543,-7.723254 13.4414,0.06439 24.6604,1.649206 30.8596,4.359306 9.6766,4.230335 33.8183,24.578458 33.8183,28.504228 0,1.12843 -6.5389,5.74201 -14.5309,10.25241 l -14.5308,8.20071 -7.5603,-8.46141 c -6.7654,-7.57183 -9.3824,-8.57743 -24.8916,-9.56498 -15.8367,-1.00841 -17.9156,-0.51923 -24.1073,5.67253 -15.1042,15.10419 -5.3533,26.88606 31.8251,38.45391 33.8932,10.54568 46.5607,18.29433 53.5666,32.76657 14.3489,29.64091 -1.5547,61.69451 -35.7102,71.97381 -15.2371,4.5857 -40.8277,4.55679 -55.6019,-0.0628 z"
     id="path16"
     transform="matrix(0.32051948,0,0,0.32051948,-0.58935065,0.18)" />
</svg>
