<?xml version="1.0" encoding="UTF-8" standalone="no"?>
<svg
   width="120"
   height="60"
   viewBox="0 0 120 60"
   version="1.1"
   id="svg901"
   sodipodi:docname="vue-js-seeklogo.com.svg"
   inkscape:version="1.3.2 (091e20ef0f, 2023-11-25)"
   xmlns:inkscape="http://www.inkscape.org/namespaces/inkscape"
   xmlns:sodipodi="http://sodipodi.sourceforge.net/DTD/sodipodi-0.dtd"
   xmlns="http://www.w3.org/2000/svg"
   xmlns:svg="http://www.w3.org/2000/svg"
   xmlns:rdf="http://www.w3.org/1999/02/22-rdf-syntax-ns#"
   xmlns:cc="http://creativecommons.org/ns#"
   xmlns:dc="http://purl.org/dc/elements/1.1/">
  <metadata
     id="metadata907">
    <rdf:RDF>
      <cc:Work
         rdf:about="">
        <dc:format>image/svg+xml</dc:format>
        <dc:type
           rdf:resource="http://purl.org/dc/dcmitype/StillImage" />
        <dc:title />
      </cc:Work>
    </rdf:RDF>
  </metadata>
  <defs
     id="defs905" />
  <sodipodi:namedview
     pagecolor="#ffffff"
     bordercolor="#666666"
     borderopacity="1"
     objecttolerance="10"
     gridtolerance="10"
     guidetolerance="10"
     inkscape:pageopacity="0"
     inkscape:pageshadow="2"
     inkscape:window-width="931"
     inkscape:window-height="998"
     id="namedview903"
     showgrid="false"
     inkscape:zoom="8.1877536"
     inkscape:cx="57.586003"
     inkscape:cy="30.777673"
     inkscape:window-x="0"
     inkscape:window-y="0"
     inkscape:window-maximized="1"
     inkscape:current-layer="svg901"
     inkscape:pagecheckerboard="true"
     inkscape:showpageshadow="2"
     inkscape:deskcolor="#d1d1d1" />
  <g
     id="g1"
     transform="matrix(1.4210325,0,0,1.4362022,-12.68783,-13.115203)">
    <path
       style="fill:#41b883;fill-rule:evenodd;stroke-width:0.402814"
       inkscape:connector-curvature="0"
       id="path893"
       d="m 43.482731,11.952421 h 8.482051 L 30.547167,48.860245 8.9885682,11.952421 h 8.6749998 l 12.883599,22.219215 z" />
    <path
       style="fill:#35495e;fill-rule:evenodd;stroke-width:0.402814"
       inkscape:connector-curvature="0"
       id="path895"
       d="m 35.466734,11.944897 h 8.067154 L 30.535889,34.210435 17.642218,11.944897 h 7.941074 l 4.952597,8.57188 z" />
  </g>
  <path
     id="path897"
     style="fill:#010101;fill-rule:evenodd;stroke-width:0.50266033"
     d="m 91.685547,37.933594 c -0.0084,0.0028 -0.01274,0.0067 -0.02148,0.0098 0.0069,8.8e-5 2.52e-4,-6.1e-5 0.0078,0 0.0042,3.4e-5 0.0091,-0.0036 0.01367,-0.0039 8.2e-5,-0.0019 -9.4e-5,-0.0039 0,-0.0059 z m -0.107422,0.03906 c -0.06194,0.02475 -0.133386,0.04667 -0.158203,0.05664 -0.04346,0.01761 -0.08749,0.0349 -0.13086,0.05273 0.132692,-0.0043 0.264778,-0.01315 0.394532,-0.0332 -0.03575,-0.02449 -0.07099,-0.04962 -0.105469,-0.07617 z" />
  <path
     style="fill:#f9f9f9;stroke-width:0.684659"
     d=""
     id="path2" />
  <path
     style="fill:#f9f9f9;stroke-width:0.684659"
     d=""
     id="path3" />
  <path
     id="path73"
     style="fill:#f9f9f9;stroke-width:0.210143"
     d="m 91.685547,37.933594 c -0.0084,0.0028 -0.01274,0.0067 -0.02148,0.0098 0.0069,8.8e-5 2e-4,-6.1e-5 0.0078,0 0.0042,3.4e-5 0.0091,-0.0036 0.01367,-0.0039 8.2e-5,-0.0019 -9.4e-5,-0.0039 0,-0.0059 z m -0.107422,0.03906 c -0.06194,0.02475 -0.133386,0.04667 -0.158203,0.05664 -0.04346,0.01761 -0.08749,0.0349 -0.13086,0.05273 0.132692,-0.0043 0.264778,-0.01315 0.394532,-0.0332 -0.03575,-0.02449 -0.07099,-0.04962 -0.105469,-0.07617 z" />
  <text
     xml:space="preserve"
     style="font-style:normal;font-variant:normal;font-weight:bold;font-stretch:normal;font-size:12.00000017px;font-family:Sk-Modernist;-inkscape-font-specification:'Sk-Modernist, Bold';font-variant-ligatures:normal;font-variant-caps:normal;font-variant-numeric:normal;font-variant-east-asian:normal;white-space:pre;inline-size:38.7835;display:inline;fill:#f9f9f9;fill-rule:evenodd"
     x="58.015766"
     y="31.741379"
     id="text84"
     transform="matrix(1.9691038,0,0,2.3340848,-57.912346,-35.047773)"><tspan
       x="58.015766"
       y="31.741379"
       id="tspan4"><tspan
         style="fill:#ffffff"
         id="tspan3">Vue.js</tspan></tspan></text>
</svg>
