<?xml version="1.0" encoding="utf-8"?>
<!-- Generator: Adobe Illustrator 25.4.1, SVG Export Plug-In . SVG Version: 6.00 Build 0)  -->
<svg version="1.1"
	 id="svg901" inkscape:version="0.92.4 (5da689c313, 2019-01-14)" sodipodi:docname="vue-ar21.svg" xmlns:cc="http://creativecommons.org/ns#" xmlns:dc="http://purl.org/dc/elements/1.1/" xmlns:inkscape="http://www.inkscape.org/namespaces/inkscape" xmlns:rdf="http://www.w3.org/1999/02/22-rdf-syntax-ns#" xmlns:sodipodi="http://sodipodi.sourceforge.net/DTD/sodipodi-0.dtd" xmlns:svg="http://www.w3.org/2000/svg"
	 xmlns="http://www.w3.org/2000/svg" xmlns:xlink="http://www.w3.org/1999/xlink" x="0px" y="0px" viewBox="0 0 120 60"
	 style="enable-background:new 0 0 120 60;" xml:space="preserve">
<style type="text/css">
	.st0{fill-rule:evenodd;clip-rule:evenodd;fill:#B7B7B7;}
	.st1{fill-rule:evenodd;clip-rule:evenodd;fill:#595959;}
</style>
<sodipodi:namedview  bordercolor="#666666" borderopacity="1" gridtolerance="10" guidetolerance="10" id="namedview903" inkscape:current-layer="svg901" inkscape:cx="37.31392" inkscape:cy="46" inkscape:pagecheckerboard="true" inkscape:pageopacity="0" inkscape:pageshadow="2" inkscape:window-height="702" inkscape:window-maximized="0" inkscape:window-width="1506" inkscape:window-x="70" inkscape:window-y="27" inkscape:zoom="1.4605809" objecttolerance="10" pagecolor="#ffffff" showgrid="false">
	</sodipodi:namedview>
<path id="path893" inkscape:connector-curvature="0" class="st0" d="M43.5,12H52L30.5,48.9L9,12h8.7l12.9,22.2L43.5,12z"/>
<path id="path895" inkscape:connector-curvature="0" class="st1" d="M35.5,11.9h8.1l-13,22.3L17.6,11.9h7.9l5,8.6L35.5,11.9z"/>
<path id="path897" inkscape:connector-curvature="0" class="st1" d="M57,19.2c0-0.3,0.2-0.5,0.5-0.7c0.3-0.2,0.6-0.3,0.9-0.3
	c0.5,0,0.7,0.2,0.9,0.5L64.1,35l4.8-16.2c0.1-0.3,0.4-0.5,0.8-0.5c0.3,0,0.7,0.1,1,0.3c0.3,0.2,0.5,0.4,0.5,0.7c0,0,0,0,0,0.1
	c0,0,0,0.1,0,0.1l-5.6,18.1c-0.2,0.5-0.7,0.8-1.5,0.8c-0.8,0-1.2-0.3-1.4-0.8l-5.6-18.1C57,19.3,57,19.3,57,19.2L57,19.2z
	 M71.4,33.2v-7.1c0-0.2,0.1-0.4,0.3-0.6c0.2-0.2,0.5-0.2,0.8-0.2c0.3,0,0.6,0.1,0.8,0.3c0.2,0.2,0.3,0.4,0.3,0.6v7.1
	c0,0.8,0.3,1.6,0.9,2.2s1.4,1,2.2,1c0.8,0,1.6-0.3,2.2-1S80,34,80,33.2v-7.1c0-0.2,0.1-0.4,0.3-0.5c0.2-0.2,0.5-0.2,0.8-0.2
	c0.3,0,0.6,0.1,0.8,0.2c0.2,0.2,0.3,0.3,0.3,0.6v7.1c0,1.4-0.5,2.6-1.6,3.7c-1.1,1-2.3,1.6-3.8,1.6c-1.5,0-2.8-0.5-3.8-1.6
	C71.9,35.8,71.4,34.6,71.4,33.2L71.4,33.2z M84.1,33.1v-2.9c0-1.4,0.5-2.6,1.6-3.6c1.1-1,2.4-1.5,3.9-1.5c1.4,0,2.7,0.5,3.7,1.4
	c1,1,1.6,2.1,1.6,3.6c0,0.5-0.1,0.9-0.2,1.3c-0.1,0.3-0.3,0.5-0.6,0.7c-0.3,0.1-0.5,0.2-0.7,0.3c-0.2,0-0.5,0.1-0.9,0.1h-6v0.8
	c0,1,0.4,1.8,1.1,2.4c0.7,0.6,1.7,0.9,2.8,0.9c0.6,0,1.1-0.1,1.6-0.3c0.4-0.2,0.8-0.4,1.1-0.5c0.3-0.2,0.5-0.3,0.7-0.3
	c0.3,0,0.5,0.1,0.7,0.3c0.2,0.2,0.3,0.5,0.3,0.7c0,0.4-0.4,0.8-1.3,1.3c-0.8,0.4-1.9,0.7-3.1,0.7c-1.8,0-3.3-0.5-4.4-1.5
	C84.7,36,84.1,34.7,84.1,33.1L84.1,33.1z M86.4,30.9h5.1c0.5,0,0.8-0.1,1-0.2s0.2-0.3,0.2-0.7c0-0.8-0.3-1.5-0.9-2.2
	c-0.6-0.6-1.3-0.9-2.2-0.9c-0.9,0-1.6,0.3-2.2,0.9c-0.6,0.6-0.9,1.3-0.9,2.1L86.4,30.9z M96,36.9c0-0.4,0.1-0.7,0.4-1
	c0.3-0.3,0.6-0.4,1-0.4c0.4,0,0.7,0.1,1,0.4c0.3,0.3,0.4,0.6,0.4,1c0,0.4-0.1,0.7-0.4,1c-0.3,0.3-0.6,0.4-1,0.4
	c-0.4,0-0.7-0.1-1-0.4C96.1,37.6,96,37.3,96,36.9z M98,43.4c0-0.3,0.1-0.5,0.3-0.7c0.2-0.2,0.4-0.3,0.7-0.3c0.7,0,1.2-0.3,1.4-0.8
	c0.2-0.5,0.3-1.3,0.3-2.4V26.1c0-0.2,0.1-0.4,0.3-0.6c0.2-0.1,0.5-0.2,0.8-0.2c0.3,0,0.6,0.1,0.8,0.2c0.2,0.1,0.3,0.3,0.3,0.6v13.2
	c0,1.6-0.3,2.8-0.9,3.8c-0.6,0.9-1.6,1.4-2.8,1.4C98.4,44.4,98,44.1,98,43.4L98,43.4z M100.4,20.4c0-0.3,0.1-0.6,0.4-0.9
	c0.3-0.3,0.6-0.4,1-0.4c0.4,0,0.7,0.1,1,0.4c0.3,0.3,0.4,0.6,0.4,0.9s-0.1,0.6-0.4,0.9c-0.3,0.3-0.6,0.4-1,0.4s-0.7-0.1-1-0.4
	C100.5,21.1,100.4,20.8,100.4,20.4L100.4,20.4z M104.7,36.3c0-0.2,0.1-0.5,0.2-0.7c0.2-0.2,0.3-0.3,0.6-0.3c0.1,0,0.4,0.1,0.6,0.3
	c0.3,0.2,0.7,0.4,1.2,0.6c0.5,0.2,1.1,0.3,1.8,0.3c0.9,0,1.6-0.2,2-0.5c0.4-0.3,0.6-0.7,0.6-1.2c0-0.6-0.2-1.1-0.7-1.4
	c-0.5-0.4-1-0.6-1.7-0.8c-0.7-0.2-1.3-0.4-2-0.6c-0.7-0.2-1.2-0.6-1.7-1.1c-0.5-0.5-0.7-1.2-0.7-2c0-1,0.4-1.9,1.1-2.7
	c0.7-0.8,1.9-1.1,3.4-1.1c1,0,1.9,0.1,2.7,0.4c0.8,0.3,1.2,0.6,1.2,1c0,0.2-0.1,0.5-0.3,0.7c-0.2,0.3-0.4,0.4-0.6,0.4
	c-0.1,0-0.4-0.1-1.1-0.4c-0.6-0.3-1.3-0.4-1.9-0.4c-0.8,0-1.5,0.2-1.9,0.6c-0.4,0.4-0.6,0.8-0.6,1.3c0,0.5,0.2,0.9,0.7,1.2
	c0.5,0.3,1,0.5,1.7,0.7c0.7,0.2,1.3,0.4,2,0.6c0.7,0.2,1.2,0.6,1.7,1.2c0.5,0.6,0.7,1.3,0.7,2.2c0,1.1-0.4,2-1.2,2.7
	c-0.8,0.7-1.9,1-3.4,1c-1.2,0-2.3-0.2-3.2-0.7C105.1,37.3,104.7,36.8,104.7,36.3L104.7,36.3z"/>
</svg>
